<svg width="210" height="48" viewBox="0 0 210 48" fill="none" xmlns="http://www.w3.org/2000/svg">
<path d="M5.89334 0.160001C3.21513 0.121599 5.72394e-07 0 5.72394e-07 0C5.72394e-07 0 0.189693 7.2032 0.321513 9.6C0.456549 12.0032 0.884162 16.7969 0.964539 19.2C1.04492 21.6 1.04492 26.4 0.964539 28.8C0.884162 31.2032 0.456549 36 0.321513 38.4C0.189693 40.7969 0 48 0 48C0 48 3.21513 47.8816 5.89334 47.84C8.57475 47.8015 13.9312 47.6609 16.6127 47.68C19.2941 47.6996 27.3287 48 27.3287 48L26.0522 46.7296C26.0522 46.7296 19.2779 41.04 17.156 38.9952C14.8121 36.7392 10.4717 31.8848 8.25968 29.5008C6.9897 28.1311 3.21513 24 3.21513 24C3.21513 24 6.98648 19.8624 8.25968 18.4995C10.462 16.1444 14.8346 11.4051 17.156 9.16512C19.2941 7.10112 26.0522 1.27072 26.0522 1.27072L27.3287 0.0031961C27.3287 0.0031961 27.4476 8.80672 27.6501 12.8C27.7499 14.8032 28.1324 21.9936 28.1324 24C28.1324 26.0064 27.7499 33.1968 27.6501 35.2001C27.4476 39.1968 27.3287 48 27.3287 48C27.3287 48 27.9074 47.3568 28.5857 46.608C29.2641 45.8592 30.0422 45.0014 30.4409 44.5824C31.7045 43.2416 34.2765 40.6015 35.5851 39.3024C36.8519 38.0416 39.4143 35.5519 40.7292 34.3424C41.382 33.7408 43.4043 32 43.4043 32C43.4043 32 41.382 30.1378 40.7292 29.498C39.3564 28.1539 35.3664 24 35.3664 24C35.3664 24 39.3564 19.8466 40.7292 18.5023C41.382 17.8624 43.4043 16 43.4043 16C43.4043 16 41.3981 14.1216 40.7292 13.4979C39.4433 12.2979 36.8325 9.936 35.5851 8.69792C34.2572 7.37952 31.7301 4.61441 30.4409 3.25793C29.6628 2.4416 27.3287 3.2589e-07 27.3287 3.2589e-07C27.3287 3.2589e-07 19.2908 0.300799 16.6127 0.319999C13.9312 0.339518 8.57475 0.201598 5.89334 0.160001Z" fill="#5E0A60"/>
<path d="M80.4073 47.84C83.0856 47.8783 86.3007 48 86.3007 48C86.3007 48 86.1111 40.7969 85.9792 38.4C85.8442 35.9968 85.4166 31.2032 85.3362 28.8C85.2558 26.4 85.2558 21.6 85.3362 19.2C85.4166 16.7969 85.8442 12 85.9792 9.6C86.1111 7.2032 86.3007 3.2589e-07 86.3007 3.2589e-07C86.3007 3.2589e-07 83.0856 0.118398 80.4073 0.16C77.7259 0.198397 72.3696 0.339201 69.6882 0.319999C67.0068 0.300478 58.9722 0 58.9722 0L60.2485 1.2704C60.2485 1.2704 67.0228 6.96 69.1447 9.0048C71.4886 11.2608 75.829 16.1152 78.0411 18.4992C79.311 19.8689 83.0856 24 83.0856 24C83.0856 24 79.3143 28.1376 78.0411 29.5005C75.8386 31.8556 71.4661 36.5949 69.1447 38.8349C67.0068 40.8988 60.2485 46.7294 60.2485 46.7294L58.9722 47.9968C58.9722 47.9968 58.8532 39.1933 58.6506 35.2001C58.551 33.1968 58.1683 26.0064 58.1683 24C58.1683 21.9936 58.551 14.8032 58.6506 12.8C58.8532 8.8032 58.9722 0 58.9722 0C58.9722 0 58.3933 0.643201 57.715 1.392C57.0366 2.1408 56.2585 2.99871 55.8598 3.4176C54.5964 4.75839 52.0242 7.39841 50.7157 8.6976C49.4488 9.9584 46.8864 12.448 45.5715 13.6576C44.9188 14.2592 42.8965 16 42.8965 16C42.8965 16 44.9188 17.8622 45.5715 18.502C46.9443 19.8461 50.9343 24 50.9343 24C50.9343 24 46.9443 28.1534 45.5715 29.4977C44.9188 30.1376 42.8965 32 42.8965 32C42.8965 32 44.9028 33.8784 45.5715 34.5021C46.8576 35.7021 49.4682 38.064 50.7157 39.3021C52.0435 40.6205 54.5706 43.3856 55.8598 44.7421C56.6379 45.5584 58.9722 48 58.9722 48C58.9722 48 67.0099 47.6992 69.6882 47.68C72.3696 47.6605 77.7259 47.7984 80.4073 47.84Z" fill="#5E0A60"/>
<path d="M105.327 20.0946C105.327 18.299 105.286 16.5439 105.204 14.8299C105.15 13.0886 105.082 11.3201 105 9.52441C105.789 9.57883 106.564 9.63324 107.326 9.68766C108.088 9.71487 108.864 9.72847 109.653 9.72847C110.442 9.72847 111.217 9.70126 111.979 9.64684C112.741 9.56523 113.516 9.52441 114.305 9.52441C115.448 9.52441 116.536 9.63324 117.57 9.8509C118.604 10.0686 119.502 10.4359 120.264 10.9528C121.053 11.4426 121.665 12.0955 122.1 12.9118C122.563 13.728 122.794 14.7483 122.794 15.9726C122.794 17.2786 122.494 18.4077 121.896 19.36C121.325 20.2851 120.617 21.0605 119.774 21.6863C118.93 22.2849 118.019 22.761 117.039 23.1147C116.087 23.4411 115.217 23.6588 114.428 23.7677C114.754 24.1758 115.203 24.7472 115.774 25.4817C116.346 26.2164 116.985 27.0326 117.692 27.9305C118.4 28.8011 119.134 29.7261 119.896 30.7056C120.658 31.6579 121.393 32.583 122.1 33.4807C122.807 34.3515 123.474 35.1542 124.1 35.8887C124.726 36.6233 125.229 37.1811 125.61 37.562C125.202 37.5075 124.794 37.4804 124.386 37.4804C123.977 37.4804 123.569 37.4804 123.161 37.4804C122.78 37.4804 122.386 37.4804 121.978 37.4804C121.569 37.4804 121.175 37.5075 120.794 37.562C120.386 36.9906 119.76 36.1335 118.917 34.9908C118.101 33.8481 117.189 32.6238 116.182 31.3177C115.176 30.0119 114.142 28.7194 113.081 27.4407C112.047 26.1347 111.094 25.0328 110.224 24.135H108.673V27.1141C108.673 28.9099 108.7 30.6784 108.755 32.4197C108.836 34.161 108.918 35.875 109 37.562C108.374 37.5075 107.707 37.4804 107 37.4804C106.292 37.4804 105.626 37.5075 105 37.562C105.082 35.875 105.15 34.161 105.204 32.4197C105.286 30.6784 105.327 28.9099 105.327 27.1141V20.0946ZM108.673 22.4208C109.054 22.5025 109.462 22.5568 109.897 22.5841C110.36 22.6113 110.863 22.6249 111.407 22.6249C112.251 22.6249 113.121 22.5297 114.019 22.3392C114.944 22.1488 115.788 21.8223 116.55 21.3597C117.312 20.8701 117.937 20.2306 118.427 19.4416C118.944 18.6253 119.202 17.605 119.202 16.3807C119.202 15.3196 118.998 14.449 118.59 13.7688C118.209 13.0614 117.706 12.5037 117.08 12.0955C116.454 11.6874 115.774 11.4153 115.04 11.2793C114.305 11.1161 113.584 11.0344 112.877 11.0344C111.924 11.0344 111.135 11.0616 110.509 11.1161C109.884 11.1433 109.353 11.1841 108.918 11.2385C108.864 12.7349 108.809 14.2177 108.755 15.687C108.7 17.1562 108.673 18.6253 108.673 20.0946V22.4208Z" fill="#5E0A60"/>
<path d="M124.846 23.6046C124.846 21.2921 125.213 19.2378 125.948 17.4422C126.709 15.6192 127.757 14.082 129.09 12.8304C130.451 11.5789 132.069 10.6266 133.947 9.97363C135.824 9.32063 137.878 8.99414 140.109 8.99414C142.367 8.99414 144.435 9.32063 146.313 9.97363C148.19 10.6266 149.795 11.5789 151.128 12.8304C152.489 14.082 153.536 15.6192 154.271 17.4422C155.033 19.2378 155.414 21.2921 155.414 23.6046C155.414 25.9173 155.033 27.9851 154.271 29.808C153.536 31.6037 152.489 33.1274 151.128 34.379C149.795 35.6304 148.19 36.5691 146.313 37.1949C144.435 37.7934 142.367 38.0928 140.109 38.0928C137.878 38.0928 135.824 37.7934 133.947 37.1949C132.069 36.5691 130.451 35.6304 129.09 34.379C127.757 33.1274 126.709 31.6037 125.948 29.808C125.213 27.9851 124.846 25.9173 124.846 23.6046ZM151.413 23.6046C151.413 21.3464 151.128 19.401 150.557 17.7686C149.986 16.109 149.183 14.7486 148.149 13.6875C147.142 12.5992 145.945 11.7965 144.558 11.2796C143.197 10.7626 141.715 10.5042 140.109 10.5042C138.531 10.5042 137.048 10.7626 135.661 11.2796C134.3 11.7965 133.103 12.5992 132.069 13.6875C131.063 14.7486 130.274 16.109 129.702 17.7686C129.131 19.401 128.845 21.3464 128.845 23.6046C128.845 25.8629 129.131 27.8219 129.702 29.4815C130.274 31.1139 131.063 32.4744 132.069 33.5627C133.103 34.6238 134.3 35.4128 135.661 35.9298C137.048 36.4467 138.531 36.7052 140.109 36.7052C141.715 36.7052 143.197 36.4467 144.558 35.9298C145.945 35.4128 147.142 34.6238 148.149 33.5627C149.183 32.4744 149.986 31.1139 150.557 29.4815C151.128 27.8219 151.413 25.8629 151.413 23.6046Z" fill="#5E0A60"/>
<path d="M161.953 8.99414C163.83 12.8576 165.721 16.6124 167.626 20.2581C169.558 23.904 171.571 27.645 173.665 31.4813C173.938 30.9644 174.333 30.2298 174.85 29.2775C175.366 28.298 175.965 27.1826 176.646 25.931C177.325 24.6794 178.047 23.3327 178.809 21.8906C179.598 20.4215 180.387 18.9386 181.176 17.4422C181.992 15.9458 182.794 14.4765 183.583 13.0345C184.372 11.5925 185.107 10.2457 185.787 8.99414H186.318C186.616 11.6061 186.889 14.1364 187.134 16.5851C187.405 19.0067 187.678 21.4008 187.95 23.768C188.223 26.1078 188.494 28.434 188.766 30.7467C189.039 33.0321 189.337 35.304 189.664 37.5623C189.337 37.5078 189.012 37.4807 188.685 37.4807C188.385 37.4807 188.073 37.4807 187.746 37.4807C187.419 37.4807 187.093 37.4807 186.766 37.4807C186.468 37.4807 186.154 37.5078 185.827 37.5623C185.529 33.9437 185.229 30.4338 184.93 27.0329C184.63 23.6319 184.263 20.1629 183.828 16.6259H183.747C181.869 20.0541 180.019 23.4687 178.197 26.8697C176.4 30.2433 174.687 33.7803 173.053 37.4807H172.686C171.054 34.0524 169.339 30.6243 167.544 27.1961C165.775 23.7407 163.993 20.2173 162.198 16.6259H162.117C161.926 18.3128 161.709 20.1494 161.463 22.1355C161.245 24.0944 161.041 26.0397 160.851 27.9716C160.66 29.8761 160.497 31.6854 160.362 33.3995C160.225 35.0864 160.158 36.4739 160.158 37.5623C159.723 37.5078 159.246 37.4807 158.728 37.4807C158.212 37.4807 157.735 37.5078 157.3 37.5623C157.654 35.3585 158.022 33.0321 158.403 30.5835C158.784 28.1348 159.151 25.6725 159.504 23.1966C159.858 20.7207 160.185 18.2856 160.483 15.8913C160.783 13.4698 161.041 11.1708 161.259 8.99414H161.953Z" fill="#5E0A60"/>
<path d="M194.436 20.0538C194.436 18.2581 194.396 16.4896 194.313 14.7483C194.259 13.007 194.192 11.2657 194.109 9.52441C195.333 9.57883 196.545 9.63324 197.742 9.68766C198.966 9.71487 200.19 9.72847 201.414 9.72847C202.64 9.72847 203.85 9.71487 205.047 9.68766C206.244 9.63324 207.455 9.57883 208.679 9.52441C208.598 9.93253 208.557 10.3406 208.557 10.7488C208.557 11.1569 208.598 11.565 208.679 11.9731C207.809 11.9187 207.006 11.8643 206.271 11.8099C205.565 11.7554 204.803 11.701 203.987 11.6466C203.198 11.5922 202.326 11.5514 201.374 11.5242C200.421 11.4698 199.28 11.4426 197.946 11.4426C197.919 12.3132 197.877 13.143 197.823 13.9321C197.796 14.7211 197.783 15.6189 197.783 16.6257C197.783 17.6868 197.783 18.7206 197.783 19.7272C197.81 20.734 197.823 21.4957 197.823 22.0128C199.02 22.0128 200.096 21.9991 201.048 21.972C201.999 21.9447 202.871 21.9176 203.66 21.8903C204.449 21.8359 205.17 21.7951 205.823 21.7678C206.502 21.7134 207.143 21.6591 207.741 21.6046C207.659 22.0128 207.618 22.4345 207.618 22.8698C207.618 23.2779 207.659 23.686 207.741 24.0942C207.033 24.0124 206.204 23.9445 205.251 23.89C204.326 23.8356 203.387 23.8084 202.436 23.8084C201.51 23.7813 200.625 23.7677 199.782 23.7677C198.966 23.7405 198.314 23.7268 197.823 23.7268C197.823 23.9716 197.81 24.2437 197.783 24.543C197.783 24.8151 197.783 25.1688 197.783 25.6041V27.1958V29.6445C197.783 31.1954 197.783 32.4741 197.783 33.4807C197.81 34.4875 197.837 35.2493 197.864 35.7663C198.762 35.7663 199.715 35.7663 200.721 35.7663C201.755 35.7663 202.761 35.7526 203.741 35.7255C204.747 35.671 205.686 35.6166 206.558 35.5621C207.455 35.4805 208.23 35.3718 208.883 35.2357C208.829 35.4261 208.788 35.6438 208.761 35.8887C208.761 36.1063 208.761 36.3104 208.761 36.5009C208.761 36.9362 208.802 37.2899 208.883 37.562C207.659 37.5075 206.435 37.4804 205.211 37.4804C204.014 37.4804 202.788 37.4804 201.537 37.4804C200.286 37.4804 199.047 37.4804 197.823 37.4804C196.599 37.4804 195.362 37.5075 194.109 37.562C194.192 35.8206 194.259 34.093 194.313 32.3788C194.396 30.6376 194.436 28.8692 194.436 27.0734V20.0538Z" fill="#5E0A60"/>
</svg>
